<svg id="Warstwa_1" data-name="Warstwa 1" xmlns="http://www.w3.org/2000/svg" viewBox="0 0 283.46 96.99"><defs><style>.cls-1{fill:#fff;}</style></defs><path class="cls-1" d="M282,8.44h-44.4a10.84,10.84,0,0,0-10.81,10.82v44.4a10.84,10.84,0,0,0,10.81,10.82H282a10.85,10.85,0,0,0,10.82-10.82V19.26A10.85,10.85,0,0,0,282,8.44m0,1.83a9,9,0,0,1,9,9v44.4a9,9,0,0,1-9,9h-44.4a9,9,0,0,1-9-9V19.26a9,9,0,0,1,9-9Z" transform="translate(-9.51 -8.44)"/><path class="cls-1" d="M209.55,8.44h-44.4a10.86,10.86,0,0,0-10.83,10.82v44.4a10.86,10.86,0,0,0,10.83,10.82h44.4a10.85,10.85,0,0,0,10.82-10.82V19.26A10.84,10.84,0,0,0,209.55,8.44m0,1.83a9,9,0,0,1,9,9v44.4a9,9,0,0,1-9,9h-44.4a9,9,0,0,1-9-9V19.26a9,9,0,0,1,9-9Z" transform="translate(-9.51 -8.44)"/><path class="cls-1" d="M137.13,8.44H92.73A10.84,10.84,0,0,0,81.92,19.26v44.4A10.85,10.85,0,0,0,92.73,74.48h44.4A10.85,10.85,0,0,0,148,63.66V19.26A10.84,10.84,0,0,0,137.13,8.44m0,1.83a9,9,0,0,1,9,9v44.4a9,9,0,0,1-9,9H92.73a9,9,0,0,1-9-9V19.26a9,9,0,0,1,9-9Z" transform="translate(-9.51 -8.44)"/><path class="cls-1" d="M64.72,8.44H20.32A10.84,10.84,0,0,0,9.51,19.26v44.4A10.85,10.85,0,0,0,20.32,74.48h44.4A10.86,10.86,0,0,0,75.55,63.66V19.26A10.85,10.85,0,0,0,64.72,8.44m0,1.83a9,9,0,0,1,9,9v44.4a9,9,0,0,1-9,9H20.32a9,9,0,0,1-9-9V19.26a9,9,0,0,1,9-9Z" transform="translate(-9.51 -8.44)"/><path class="cls-1" d="M11.37,94.5v6c0,.35-.12.35-.38.35H9.91c-.3,0-.4,0-.4-.33V87.93c0-.32.08-.41.35-.44h6.53c.27,0,.36,0,.36.27a6.9,6.9,0,0,1,0,.73c0,.12,0,.26-.34.24h-5v4.56H15.6c.26,0,.35,0,.35.33s0,.61,0,.66-.12.22-.34.22Z" transform="translate(-9.51 -8.44)"/><path class="cls-1" d="M25.51,98.55c0,1-.08,1.47-.8,1.91a6.66,6.66,0,0,1-3.11.66,4,4,0,0,1-2.69-.73,2.64,2.64,0,0,1-.86-2.26V91.42c0-.24.05-.34.33-.34h1c.26,0,.37,0,.37.36v6.29c0,.89,0,2.26,2.12,2.26s2-1.12,2-2V91.47c0-.18,0-.34.22-.37.05,0,.69,0,1.05,0s.39.07.41.36Z" transform="translate(-9.51 -8.44)"/><path class="cls-1" d="M35.74,100.51c0,.17,0,.34-.22.38H34.47c-.3,0-.41,0-.41-.38V94.15c0-.89,0-2.32-2.22-2.32-2,0-2,1.22-2,1.69v7c0,.34-.14.38-.41.38h-.92c-.26,0-.37,0-.37-.35V92.9c0-.72.12-1.07.77-1.38a7.94,7.94,0,0,1,3.25-.66c3.6,0,3.62,2,3.62,3.12Z" transform="translate(-9.51 -8.44)"/><path class="cls-1" d="M44.45,92.54a2.51,2.51,0,0,0-1.81-.71c-1.74,0-3,1.72-3,4,0,2.63,1.31,4.11,3.13,4.11,1.65,0,1.66-1,1.67-1.5Zm1.72,6.35A1.57,1.57,0,0,1,45.9,100c-.64.91-2.5,1.17-3.5,1.17-2.7,0-4.46-1.7-4.46-4.83,0-2.6,1.52-5.44,4.46-5.44a3.63,3.63,0,0,1,2.05.62V86.81c0-.3,0-.41.38-.41h1c.29,0,.4,0,.38.37Z" transform="translate(-9.51 -8.44)"/><path class="cls-1" d="M53.35,95.75c-2.06.66-3.42,1.09-3.42,2.55a1.74,1.74,0,0,0,1.93,1.8c1.48,0,1.49-.87,1.49-1.39ZM55,98.9c0,.85-.12,1.34-.82,1.71a6.35,6.35,0,0,1-2.66.52c-.51,0-3.32,0-3.32-2.58,0-2.18,2.12-2.8,5.15-3.7v-1c0-.74,0-2-1.42-2a1.65,1.65,0,0,0-1.59,1.23c-.13.36-.28.82-.85.82a.77.77,0,0,1-.76-.8c0-1.14,1.42-2.25,3.45-2.25,2.79,0,2.81,2,2.82,3Z" transform="translate(-9.51 -8.44)"/><path class="cls-1" d="M61.05,91.93c-1.31,0-2.46,1.29-2.46,3.54,0,2.79,1.41,4.14,2.84,4.14a2.67,2.67,0,0,0,2.26-1.51c.24-.41.32-.54.54-.54s.4,0,.4.46a3.52,3.52,0,0,1-3.58,3.1c-2.52,0-4-2.18-4-5,0-3,1.51-5.24,4.23-5.24a3.09,3.09,0,0,1,3.24,2.41.77.77,0,0,1-.77.8.92.92,0,0,1-.8-.57c-.4-.78-.78-1.56-1.9-1.56" transform="translate(-9.51 -8.44)"/><path class="cls-1" d="M67.64,89.39a1,1,0,0,1-1-1,1,1,0,0,1,2-.05,1,1,0,0,1-1,1M68.5,98a11.24,11.24,0,0,1-.67,4.34c-1,2.39-2.73,3.07-3.1,3.07s-.44-.12-.44-.36a.51.51,0,0,1,.27-.42c2.08-1.35,2.14-3.6,2.21-6.33V91.47c0-.32.08-.39.38-.39h1c.28,0,.34.1.34.37Z" transform="translate(-9.51 -8.44)"/><path class="cls-1" d="M75.68,95.75c-2.07.66-3.43,1.09-3.43,2.55a1.74,1.74,0,0,0,1.93,1.8c1.49,0,1.5-.87,1.5-1.39Zm1.65,3.15c0,.85-.11,1.34-.82,1.71a6.35,6.35,0,0,1-2.66.52c-.52,0-3.32,0-3.32-2.58,0-2.18,2.12-2.8,5.15-3.7v-1c0-.74,0-2-1.42-2a1.65,1.65,0,0,0-1.59,1.23c-.14.36-.29.82-.85.82a.77.77,0,0,1-.76-.8c0-1.14,1.42-2.25,3.45-2.25,2.78,0,2.81,2,2.82,3Z" transform="translate(-9.51 -8.44)"/><path class="cls-1" d="M87.08,94h1.51c1.65-.16,2.83-1.07,2.83-2.78,0-2.76-2.32-2.76-3.13-2.76a6.52,6.52,0,0,0-1.21.1Zm-1.82-5.74c0-.4,0-.49.3-.59a14.22,14.22,0,0,1,2.94-.26,5.65,5.65,0,0,1,3.65.94A3.22,3.22,0,0,1,93.29,91c0,1.8-1.21,3.1-3.32,3.63l3.85,5.77a.6.6,0,0,1,.13.34c0,.18-.18.18-.3.18H92.28c-.35,0-.35,0-.54-.3l-3.17-5.06a1.26,1.26,0,0,0-1-.69c-.54,0-.51.46-.51.67v5c0,.33-.09.4-.37.4H85.62c-.28,0-.36,0-.36-.31Z" transform="translate(-9.51 -8.44)"/><path class="cls-1" d="M99.19,91.92c-1.5,0-2.48,1.57-2.48,3.83,0,2.64,1.33,4.22,2.68,4.22s2.55-1.56,2.43-4.17-1.36-3.88-2.63-3.88m.13,9.2C96.45,101.12,95,98.55,95,96s1.59-5.14,4.35-5.14c3,0,4.26,2.87,4.31,5.07,0,2.54-1.5,5.19-4.3,5.19" transform="translate(-9.51 -8.44)"/><path class="cls-1" d="M107.3,99.86h4.17c.12,0,.28,0,.28.24v.55c0,.24-.13.24-.32.24h-6c-.11,0-.3,0-.3-.18s0-.1.13-.34l4.38-8.23h-3.85c-.14,0-.24,0-.28-.06s-.08-.45-.08-.72.12-.26.36-.28h5.64c.1,0,.35,0,.35.23,0,0,0,.07-.13.34Z" transform="translate(-9.51 -8.44)"/><path class="cls-1" d="M118.81,94.51l-1.88,6.1c-.1.27-.14.28-.38.28h-.66c-.14,0-.17-.07-.25-.28l-2.88-9a1.33,1.33,0,0,1-.08-.32c0-.23.19-.23.29-.23h1c.3,0,.36,0,.45.36l2.09,7,2-7s.08-.23.1-.29.14-.07.42-.07.17,0,.25.3l2.15,7.13,2-7.07c.09-.29.12-.36.4-.36.91,0,1,0,1,.21a1.26,1.26,0,0,1-.09.34l-2.79,9c-.08.21-.1.28-.31.28h-.79c-.13,0-.18,0-.26-.28Z" transform="translate(-9.51 -8.44)"/><path class="cls-1" d="M130.23,91.92c-1.49,0-2.46,1.57-2.46,3.83,0,2.64,1.3,4.22,2.67,4.22s2.54-1.56,2.42-4.17-1.37-3.88-2.63-3.88m.14,9.2c-2.86,0-4.36-2.57-4.36-5.12s1.59-5.14,4.32-5.14c3,0,4.29,2.87,4.34,5.07,0,2.54-1.5,5.19-4.3,5.19" transform="translate(-9.51 -8.44)"/><path class="cls-1" d="M137.79,89.39a1,1,0,0,1-1-1,1,1,0,0,1,2-.05,1,1,0,0,1-1,1m.86,8.61a11.24,11.24,0,0,1-.67,4.34c-1,2.39-2.73,3.07-3.11,3.07a.38.38,0,0,1-.43-.36.49.49,0,0,1,.27-.42c2.08-1.35,2.14-3.6,2.2-6.33V91.47c0-.32.09-.39.39-.39h1c.29,0,.35.1.35.37Z" transform="translate(-9.51 -8.44)"/><path class="cls-1" d="M148.64,98.55c0,1-.08,1.47-.8,1.91a6.7,6.7,0,0,1-3.11.66,4,4,0,0,1-2.69-.73,2.64,2.64,0,0,1-.87-2.26V91.42c0-.24.06-.34.33-.34h1c.28,0,.39,0,.39.36v6.29c0,.89,0,2.26,2.11,2.26s2-1.12,2-2V91.47c0-.18,0-.34.23-.37.06,0,.68,0,1,0s.39.07.41.36Z" transform="translate(-9.51 -8.44)"/><path class="cls-1" d="M161.57,93.52c.94.47,2.89,1.44,2.89,3.85,0,2.24-1.72,3.81-4.19,3.81-3,0-4.21-2.05-4.21-2.86a.89.89,0,0,1,.9-.93c.55,0,.77.41,1,.81A2.65,2.65,0,0,0,160.4,100a2.17,2.17,0,0,0,2.3-2.22c0-1.63-1.31-2.25-2.77-2.94l-1-.49a4,4,0,0,1-2.67-3.55c0-2,1.52-3.56,3.92-3.56s3.75,1.35,3.75,2.29a.82.82,0,0,1-.8.88c-.49,0-.71-.33-.93-.67a2.38,2.38,0,0,0-2.11-1.38A2.06,2.06,0,0,0,158,90.41c0,1.47,1.18,2,2.62,2.66Z" transform="translate(-9.51 -8.44)"/><path class="cls-1" d="M170,102.23c-.52,1.43-1.36,3.2-3.39,3.2-.22,0-1.33,0-1.33-.89a.79.79,0,0,1,.82-.82c.15,0,.85.17,1,.17.82,0,1.36-.62,2.11-3l-3.68-9.26a1.5,1.5,0,0,1-.12-.32c0-.25.25-.23.34-.23h1.14c.29,0,.31,0,.42.34L170,98.71l2.47-7.29c.1-.29.16-.32.31-.34h.92c.15,0,.27,0,.27.21a.84.84,0,0,1-.1.34Z" transform="translate(-9.51 -8.44)"/><path class="cls-1" d="M179.29,95.36c1,.5,2.32,1.14,2.32,2.91a2.91,2.91,0,0,1-.88,2.12,3.44,3.44,0,0,1-2.3.73c-2.54,0-3.27-1.59-3.27-2.15a.77.77,0,0,1,.77-.8.93.93,0,0,1,.76.48l.24.44a1.78,1.78,0,0,0,1.64,1A1.38,1.38,0,0,0,180,98.6c0-1.15-1-1.6-1.81-2-1.56-.73-2.86-1.36-2.86-3.11,0-1.34.94-2.63,3-2.63s2.95,1.31,2.95,1.92a.67.67,0,0,1-.7.71c-.48,0-.66-.31-.83-.64a1.62,1.62,0,0,0-1.46-1,1.38,1.38,0,0,0-1.42,1.38c0,1.07.91,1.48,1.59,1.78Z" transform="translate(-9.51 -8.44)"/><path class="cls-1" d="M185.9,91.92v6.16a2.54,2.54,0,0,0,.22,1.36,1.22,1.22,0,0,0,1.14.66l.49,0a.36.36,0,0,1,.39.38c0,.49-1,.63-1.49.63a2.45,2.45,0,0,1-2-.88,2.82,2.82,0,0,1-.46-1.8V91.92h-1c-.24,0-.29,0-.29-.29,0-.5,0-.53.29-.55h1V89.94a.76.76,0,0,1,.29-.67l.87-.77c.2-.17.26-.21.33-.21s.2.24.2.48v2.31h1.66c.21,0,.3,0,.3.26,0,.52,0,.58-.29.58Z" transform="translate(-9.51 -8.44)"/><path class="cls-1" d="M195,94.06a2.14,2.14,0,0,0-2-2.13c-1.53,0-2.32,1.18-2.51,2.82Zm-4.53,1.63c.16,2.65,1.51,3.87,2.94,3.87A3,3,0,0,0,196,97.9c.27-.45.32-.55.55-.55s.38.06.38.45a3.86,3.86,0,0,1-3.78,3.33,3.82,3.82,0,0,1-3.54-2.21,7.47,7.47,0,0,1,0-6,3.87,3.87,0,0,1,3.51-2.1,3.48,3.48,0,0,1,3.63,3.37c0,.52-.32.56-.55.61Z" transform="translate(-9.51 -8.44)"/><path class="cls-1" d="M199.09,92.92c0-.65,0-1,.48-1.31a5.77,5.77,0,0,1,3-.76A3.15,3.15,0,0,1,205.43,92a3.49,3.49,0,0,1,3-1.14c3.1,0,3.08,2.06,3.08,3.06v6.63c0,.26-.08.33-.34.35h-1c-.24,0-.33,0-.33-.35V94.36c0-1,0-2.44-1.84-2.44a2,2,0,0,0-1.31.43,1.77,1.77,0,0,0-.53,1.56v6.63c0,.26,0,.35-.32.35h-1c-.26,0-.37,0-.37-.33V94.19c0-.69,0-2.33-1.82-2.33s-1.85,1.4-1.85,2v6.63c0,.3-.09.35-.39.35h-1c-.25,0-.34,0-.34-.35Z" transform="translate(-9.51 -8.44)"/><path class="cls-1" d="M221.55,98.55c0,1-.07,1.47-.79,1.91a6.74,6.74,0,0,1-3.11.66,4,4,0,0,1-2.7-.73,2.66,2.66,0,0,1-.86-2.26V91.42c0-.24,0-.34.33-.34h1c.26,0,.37,0,.37.36v6.29c0,.89,0,2.26,2.12,2.26s2-1.12,2-2V91.47c0-.18,0-.34.22-.37s.69,0,1,0,.4.07.41.36Z" transform="translate(-9.51 -8.44)"/><path class="cls-1" d="M231.35,94.5v5.19h5.12c.25,0,.36,0,.36.29v.62c0,.27-.13.29-.36.29h-6.59c-.28,0-.39,0-.39-.33V88c0-.32.06-.45.39-.45h6.59c.21,0,.36,0,.36.28a6.58,6.58,0,0,1,0,.72c0,.17-.09.21-.34.21h-5.12v4.56h4.32c.22,0,.37,0,.37.29a7,7,0,0,1,0,.74c0,.15-.13.18-.35.18Z" transform="translate(-9.51 -8.44)"/><path class="cls-1" d="M244.93,92.54a2.58,2.58,0,0,0-1.83-.71c-1.73,0-3,1.72-3,4,0,2.63,1.31,4.11,3.12,4.11,1.66,0,1.68-1,1.7-1.5Zm1.7,6.35a1.62,1.62,0,0,1-.26,1.06c-.65.91-2.51,1.17-3.51,1.17-2.7,0-4.46-1.7-4.46-4.83,0-2.6,1.52-5.44,4.46-5.44a3.76,3.76,0,0,1,2.07.62V86.81c0-.3,0-.41.35-.41h1c.29,0,.4,0,.38.37Z" transform="translate(-9.51 -8.44)"/><path class="cls-1" d="M256.62,98.55c0,1-.07,1.47-.79,1.91a6.74,6.74,0,0,1-3.11.66,4,4,0,0,1-2.7-.73,2.67,2.67,0,0,1-.87-2.26V91.42c0-.24.06-.34.35-.34h1c.27,0,.39,0,.39.36v6.29c0,.89,0,2.26,2.12,2.26s2-1.12,2-2V91.47c0-.18,0-.34.22-.37s.69,0,1,0,.4.07.41.36Z" transform="translate(-9.51 -8.44)"/><path class="cls-1" d="M262.74,95.49l4,4.91c.1.14.16.21.16.31s-.2.18-.25.18h-1.29c-.3,0-.35,0-.57-.28l-3.91-4.83v4.83c0,.28-.09.28-.36.28h-1c-.25,0-.32,0-.32-.3V86.7c0-.26.12-.3.32-.3h1c.23,0,.36,0,.36.27v8.82l3.72-4.07c.29-.3.31-.34.66-.34,1.1,0,1.14,0,1.14.21s-.08.18-.21.34Z" transform="translate(-9.51 -8.44)"/><path class="cls-1" d="M273.33,95.75c-2.08.66-3.44,1.09-3.44,2.55a1.74,1.74,0,0,0,1.93,1.8c1.48,0,1.51-.87,1.51-1.39ZM275,98.9c0,.85-.12,1.34-.81,1.71a6.44,6.44,0,0,1-2.68.52c-.51,0-3.32,0-3.32-2.58,0-2.18,2.13-2.8,5.17-3.7v-1c0-.74,0-2-1.43-2a1.65,1.65,0,0,0-1.59,1.23c-.14.36-.29.82-.85.82a.77.77,0,0,1-.77-.8c0-1.14,1.42-2.25,3.46-2.25,2.78,0,2.8,2,2.82,3Z" transform="translate(-9.51 -8.44)"/><path class="cls-1" d="M281,91.93c-1.31,0-2.46,1.29-2.46,3.54,0,2.79,1.42,4.14,2.85,4.14a2.66,2.66,0,0,0,2.25-1.51c.25-.41.33-.54.55-.54s.4,0,.4.46a3.53,3.53,0,0,1-3.59,3.1c-2.51,0-4-2.18-4-5,0-3,1.51-5.24,4.22-5.24a3.11,3.11,0,0,1,3.25,2.41.78.78,0,0,1-.78.8.93.93,0,0,1-.8-.57c-.41-.78-.78-1.56-1.9-1.56" transform="translate(-9.51 -8.44)"/><path class="cls-1" d="M287.62,89.39a1,1,0,0,1-1-1,1,1,0,0,1,1-1,1,1,0,0,1,1,.95,1,1,0,0,1-1,1m.84,8.61a11.24,11.24,0,0,1-.65,4.34c-1,2.39-2.74,3.07-3.12,3.07s-.43-.12-.43-.36a.5.5,0,0,1,.26-.42c2.08-1.35,2.14-3.6,2.22-6.33V91.47c0-.32.07-.39.37-.39h1c.28,0,.34.1.34.37Z" transform="translate(-9.51 -8.44)"/><path class="cls-1" d="M292.78,100.55c0,.33-.1.34-.37.34h-1c-.28,0-.28-.07-.28-.34V91.44c0-.24,0-.36.32-.36h1c.3,0,.37,0,.37.36ZM292,89.39a1,1,0,0,1-1-1,1,1,0,0,1,2-.05,1,1,0,0,1-1,1" transform="translate(-9.51 -8.44)"/><path class="cls-1" d="M125.08,15.32c-8,0-15.82,2.08-19.48,4.28-2.7,1.59-3.2,3.07-3.2,7.36V74.48h10.91V29.9c.12-3.19.24-8.58,7.48-8.58,3.55,0,5.14,1.47,6.73,3.06,2.09,2.33,2.94,3.31,5.15,3.31a5,5,0,0,0,5-5.27c0-5.76-6.61-7.1-12.61-7.1" transform="translate(-9.51 -8.44)"/><path class="cls-1" d="M259.63,22.3c7,0,12.39,5.89,13.13,13.74l-29.3,4.53c1.23-10.67,6.24-18.27,16.17-18.27M242.89,74.48h35.47c5.21-5.47,7-12.34,7-14.18,0-2.58-1.71-2.95-2.45-2.95-1.47,0-1.84.62-3.55,3.56-4.05,6.61-9.56,10.79-16.92,10.79-9.33,0-18-8-19-25.13L281,41.06c1.46-.25,3.56-.49,3.56-3.92,0-5-4.18-21.82-23.54-21.82a25,25,0,0,0-22.68,13.6c-2.46,4.54-4.17,10.91-4.17,19.73,0,5.76.74,12.75,3.92,18.87a27.09,27.09,0,0,0,4.83,7" transform="translate(-9.51 -8.44)"/><path class="cls-1" d="M178,68.63c-.74-1.35-1.23-2.21-1.6-2.82-.74-1.1-2.21-3.18-4.91-3.18a5,5,0,0,0-5,5.27,11.68,11.68,0,0,0,2.89,6.58h16.3c-4.23-.87-6.25-3.61-7.66-5.85M193.3,44.49,188,42c-4.41-2-10.29-4.66-10.29-11.53a8.9,8.9,0,0,1,9.19-8.94c5.88,0,8.09,4.28,9.44,6.62,1.11,2.08,2.2,4.16,5.39,4.16a4.41,4.41,0,0,0,4.54-4.66c0-3.92-5.16-12.37-19.12-12.37-13.36,0-19.49,8.33-19.49,17,0,11.28,8.45,15.32,18.5,20.1C191.58,55,198,58,198,65.45a8.9,8.9,0,0,1-6.89,9H204.7a19.17,19.17,0,0,0,3.55-11.12c0-11.52-8.59-15.69-14.95-18.87" transform="translate(-9.51 -8.44)"/><path class="cls-1" d="M52,12.33c.61,0,3.2.12,3.8,0a4.09,4.09,0,0,0,3.65-3.89H42.92a24,24,0,0,0-4.32,6.34C35.79,20.9,35.17,29,34.81,34.51h-7c-2.21,0-2.21.37-2.21,3.8,0,1.72.61,1.72,2.33,1.72h6.87V74.48h11V40h9.93c1.59,0,2.45,0,2.45-1.6,0-3.55,0-4-2.45-3.92H45.58C44.85,32.8,44,30.71,44,25.19c0-8,2.46-12.86,8-12.86" transform="translate(-9.51 -8.44)"/></svg>